<svg version="1.1" id="Layer_1" xmlns="http://www.w3.org/2000/svg" xmlns:xlink="http://www.w3.org/1999/xlink" x="0px" y="0px"
	 width="100%" viewBox="0 0 2000 2000" enable-background="new 0 0 2000 2000" xml:space="preserve">
<path fill="#7CCF00" opacity="1.000000" stroke="none" 
	d="
M295.465698,1390.447266 
	C274.738129,1393.249512 254.494263,1396.451416 234.134064,1398.492920 
	C219.426620,1399.967651 204.536163,1400.620117 190.330994,1394.522095 
	C177.200455,1388.885254 172.603867,1378.036377 170.970276,1364.857300 
	C168.518478,1345.077148 178.163559,1330.594360 191.136230,1317.562256 
	C210.079132,1298.532593 223.029358,1276.417725 227.555313,1249.638184 
	C230.772736,1230.600952 231.597855,1211.386719 229.339050,1192.367432 
	C223.843475,1146.094360 217.423019,1099.930176 211.247986,1053.739258 
	C205.557877,1011.175598 199.817154,968.618164 193.884460,926.087891 
	C188.757507,889.333801 183.887131,852.529541 177.834274,815.924194 
	C173.937759,792.359619 165.288895,770.404968 149.007355,752.165649 
	C138.847290,740.783936 126.258240,732.898560 112.747032,726.113037 
	C105.959679,722.704224 99.452194,718.572754 93.290527,714.115173 
	C76.247810,701.785400 69.867180,669.557678 91.389114,650.493713 
	C107.234543,636.458069 125.039238,625.523987 143.150467,614.943481 
	C178.089127,594.532593 214.017654,576.039124 251.596420,560.979675 
	C262.471863,556.621460 273.830811,552.789917 285.328400,550.825562 
	C302.005493,547.976196 313.939575,555.374756 318.678345,571.611633 
	C322.378662,584.290283 324.158356,597.610413 325.899475,610.763611 
	C329.984528,641.622864 333.530609,672.553467 337.318329,703.452332 
	C337.451599,704.539673 337.834747,705.596313 338.287964,707.416260 
	C341.892639,700.080078 345.058960,693.347290 348.469238,686.740356 
	C379.834320,625.975403 424.609650,577.949646 484.207428,544.030273 
	C520.326782,523.473267 559.083435,510.561920 600.050537,504.044189 
	C633.121216,498.782745 666.329407,497.264282 699.635315,501.117493 
	C767.430969,508.960846 824.729919,537.231079 869.469360,589.431458 
	C901.641602,626.968933 922.397644,670.569092 936.962769,717.431702 
	C948.262024,753.786621 954.630005,791.147339 960.011597,828.720398 
	C965.179260,864.800598 970.359497,900.878967 975.534180,936.958130 
	C980.354431,970.566101 985.152527,1004.177246 990.002136,1037.781006 
	C993.612915,1062.801025 996.823914,1087.860352 1003.733521,1112.316162 
	C1014.195984,1149.346924 1034.171021,1178.831787 1068.278809,1198.045776 
	C1079.193604,1204.194336 1089.800903,1211.481689 1094.921509,1223.510132 
	C1098.124268,1231.033447 1100.403931,1239.280151 1101.256104,1247.395630 
	C1102.515503,1259.391602 1096.530518,1268.514771 1086.424561,1274.864746 
	C1075.191772,1281.923096 1062.557007,1285.013428 1049.689087,1286.891357 
	C1013.787537,1292.130371 977.839600,1297.052979 941.901062,1302.036133 
	C906.619751,1306.927979 871.332458,1311.777100 836.038025,1316.572754 
	C818.220337,1318.993774 800.405640,1321.988647 782.327942,1319.956909 
	C767.742798,1318.317749 754.579834,1313.722290 749.407593,1298.244019 
	C743.822571,1281.530640 744.996399,1265.305542 756.404114,1251.000000 
	C762.109497,1243.845215 768.283081,1237.052490 774.427063,1230.260742 
	C794.180481,1208.424683 802.893677,1182.277466 805.065247,1153.404297 
	C807.194336,1125.096802 803.402466,1097.223389 799.551208,1069.328491 
	C794.998535,1036.352905 790.726929,1003.336914 785.944763,970.394836 
	C778.272522,917.545044 773.437744,864.249634 761.970154,811.992126 
	C753.763367,774.594238 741.577209,738.624817 720.873718,706.023926 
	C702.393188,676.923401 678.619141,653.864136 646.156250,640.762390 
	C623.317444,631.544922 599.486938,628.859436 575.115784,630.390564 
	C539.985229,632.597473 507.593781,643.159607 478.520813,663.211487 
	C441.711121,688.599487 417.361816,723.471436 402.258636,765.059387 
	C387.308746,806.225281 382.085327,848.967407 385.882355,892.379456 
	C389.258728,930.982178 394.763641,969.406677 399.691559,1007.863342 
	C404.218719,1043.192627 409.180878,1078.466675 414.042480,1113.752441 
	C417.878815,1141.596558 421.336487,1169.475464 429.713440,1196.513916 
	C440.362122,1230.884766 459.717010,1258.141113 491.339478,1276.228638 
	C497.656067,1279.841553 503.597687,1284.296631 509.146484,1289.027222 
	C521.431763,1299.500488 525.964905,1313.621338 525.686523,1329.205322 
	C525.457581,1342.017090 517.705994,1350.421143 506.808838,1355.927002 
	C494.339844,1362.226807 480.764648,1364.981323 467.062958,1366.898193 
	C421.567932,1373.263550 376.052216,1379.481323 330.541138,1385.731934 
	C319.000214,1387.316895 307.447113,1388.812866 295.465698,1390.447266 
z"/>
<path fill="#7CCF00" opacity="1.000000" stroke="none" 
	d="
M1577.973389,617.980713 
	C1549.036987,614.681335 1522.097900,618.805298 1497.647339,634.733276 
	C1468.426514,653.768616 1455.354126,681.484131 1454.012207,715.608826 
	C1452.746826,747.787903 1465.446411,774.522522 1485.885132,798.280457 
	C1508.015625,824.004944 1534.322144,845.040588 1562.193604,863.969482 
	C1597.298462,887.811096 1633.120972,910.597839 1668.684937,933.761414 
	C1700.648926,954.580200 1732.452759,975.632874 1761.862549,1000.019958 
	C1788.240479,1021.892883 1812.919556,1045.417847 1831.647949,1074.483521 
	C1863.581665,1124.043213 1868.270996,1176.784302 1848.604736,1231.679565 
	C1829.955566,1283.735718 1794.121094,1321.312500 1746.343872,1347.940430 
	C1711.951294,1367.108521 1674.911621,1378.460571 1635.996460,1383.981689 
	C1602.703369,1388.705078 1569.273193,1390.139893 1535.816650,1386.880127 
	C1446.597656,1378.187744 1362.372925,1354.012329 1287.082031,1303.776123 
	C1247.356567,1277.270142 1213.881836,1244.442383 1190.928467,1201.975952 
	C1173.754761,1170.202759 1165.171509,1136.444824 1169.073120,1100.108276 
	C1172.472900,1068.443481 1185.538574,1042.427612 1214.682983,1027.166748 
	C1251.651855,1007.808594 1310.185059,1013.952881 1335.005981,1063.723145 
	C1346.481445,1086.733521 1356.213379,1110.663574 1365.806763,1134.549683 
	C1377.031372,1162.496948 1387.717163,1190.612061 1403.782593,1216.307007 
	C1433.770508,1264.269043 1477.532837,1290.315796 1532.928101,1298.168335 
	C1556.783936,1301.549927 1580.019531,1299.852173 1602.654175,1291.078247 
	C1640.196899,1276.525635 1665.533691,1236.680054 1663.289673,1196.449097 
	C1661.736816,1168.610229 1649.973389,1145.255737 1633.278320,1123.863159 
	C1612.171509,1096.817749 1585.984741,1075.239014 1558.753296,1054.745239 
	C1523.695190,1028.361206 1485.691772,1006.542053 1448.737427,983.089417 
	C1412.292847,959.960388 1376.401123,936.032410 1344.597046,906.593018 
	C1319.723389,883.568848 1298.116943,857.999329 1283.625488,826.984619 
	C1266.635376,790.622314 1263.163330,752.636292 1269.413574,713.338684 
	C1275.200562,676.952637 1289.592163,644.531799 1313.535522,616.515747 
	C1332.522583,594.298950 1355.694214,577.376038 1381.745850,564.371338 
	C1416.683350,546.930786 1453.908813,537.425476 1492.548584,532.993591 
	C1535.542725,528.062195 1578.335327,529.938477 1620.981934,536.808289 
	C1675.076416,545.522278 1726.910400,561.214417 1775.324951,587.234558 
	C1806.346680,603.907043 1834.613892,624.288879 1858.198120,650.709167 
	C1881.632690,676.961792 1898.195679,706.731323 1903.610352,741.895447 
	C1907.701050,768.460144 1905.065674,794.369995 1894.106689,819.138855 
	C1876.640869,858.613770 1840.632935,872.746948 1802.821411,864.793640 
	C1770.071533,857.905029 1748.332520,837.722290 1733.952515,808.511841 
	C1723.247803,786.767090 1717.625854,763.215088 1709.790649,740.442688 
	C1703.802612,723.039307 1697.515137,705.544128 1689.237305,689.162842 
	C1670.677979,652.435364 1639.210083,631.829346 1599.978149,622.168640 
	C1592.881592,620.421082 1585.611450,619.377747 1577.973389,617.980713 
z"/>
</svg>